<?xml version="1.0" standalone="no"?>
<!DOCTYPE svg PUBLIC "-//W3C//DTD SVG 20010904//EN"
 "http://www.w3.org/TR/2001/REC-SVG-20010904/DTD/svg10.dtd">
<svg version="1.0" xmlns="http://www.w3.org/2000/svg"
 width="339.000000pt" height="408.000000pt" viewBox="0 0 339.000000 408.000000"
 preserveAspectRatio="xMidYMid meet">

<g transform="translate(0.000000,408.000000) scale(0.100000,-0.100000)"
fill="#000000" stroke="none">
<path d="M89 3933 c-46 -82 -84 -153 -84 -159 0 -5 38 -76 85 -157 l84 -147
177 0 177 0 86 150 c47 82 86 152 86 155 0 3 -39 73 -86 155 l-87 150 -177 0
-176 0 -85 -147z"/>
<path d="M1161 3305 c-49 -87 -81 -153 -78 -164 2 -10 41 -81 86 -159 l83
-142 173 0 173 0 86 149 c47 82 86 154 86 161 0 12 -115 218 -152 273 l-19 27
-177 0 -177 0 -84 -145z"/>
<path d="M2863 3128 c-23 -28 -163 -281 -163 -293 0 -7 38 -77 84 -156 l83
-144 178 0 178 0 84 145 c45 80 83 152 82 160 0 8 -37 78 -82 155 l-83 140
-175 3 c-133 2 -179 -1 -186 -10z"/>
<path d="M1778 2503 c-9 -10 -49 -77 -91 -150 l-75 -131 87 -151 86 -151 180
2 179 3 83 140 c45 77 82 146 82 154 1 14 -110 214 -151 274 l-19 27 -173 0
c-152 0 -175 -2 -188 -17z"/>
<path d="M2779 2368 l-87 -151 88 -151 87 -151 178 0 178 0 84 145 c45 80 83
151 83 158 0 7 -37 77 -82 157 l-83 144 -180 0 -180 0 -86 -151z"/>
<path d="M1209 2148 c-23 -40 -62 -107 -86 -148 -23 -41 -43 -81 -43 -90 1 -8
38 -78 83 -155 l82 -140 180 0 180 0 82 140 c48 80 82 149 80 160 -2 11 -40
84 -86 163 l-83 142 -173 0 -174 0 -42 -72z"/>
<path d="M622 1756 c-45 -79 -82 -150 -82 -158 0 -9 37 -80 83 -159 l83 -144
176 -3 176 -2 86 149 c47 82 86 153 86 158 0 6 -37 75 -83 154 l-83 144 -180
3 -180 2 -82 -144z"/>
<path d="M2475 849 c-44 -33 -81 -64 -83 -68 -1 -4 16 -25 38 -45 31 -28 45
-34 58 -27 9 5 57 28 106 50 l90 41 -54 55 c-30 30 -59 55 -65 55 -5 0 -46
-28 -90 -61z"/>
<path d="M1300 623 c0 -4 45 -146 101 -316 126 -381 115 -372 219 -154 l73
152 73 -152 c106 -220 95 -227 218 150 55 166 101 308 104 315 3 9 -18 12 -84
12 l-89 0 -12 -37 c-81 -268 -74 -251 -89 -218 -102 223 -115 247 -127 237 -7
-6 -37 -67 -67 -136 -30 -69 -57 -126 -60 -126 -3 0 -23 62 -45 138 l-40 137
-88 3 c-48 1 -87 -1 -87 -5z"/>
<path d="M840 611 c-77 -25 -155 -96 -189 -171 -26 -57 -29 -189 -5 -245 23
-56 107 -139 167 -166 77 -35 201 -34 277 2 127 59 180 143 180 281 0 99 -21
152 -83 216 -68 70 -106 85 -222 89 -55 1 -111 -1 -125 -6z m159 -141 c47 -13
99 -66 112 -113 20 -75 -15 -153 -85 -186 -54 -27 -98 -27 -152 0 -100 48
-121 179 -41 257 49 48 101 61 166 42z"/>
<path d="M2295 596 c-74 -34 -150 -120 -171 -191 -80 -278 217 -501 482 -362
38 20 107 93 130 137 26 52 31 174 9 241 -24 72 -110 159 -179 182 -77 26
-208 23 -271 -7z m235 -144 c48 -36 70 -80 70 -142 0 -50 -4 -61 -35 -97 -129
-151 -365 0 -276 176 20 39 55 67 100 82 38 12 112 2 141 -19z"/>
</g>
</svg>
